<svg width="29" height="19" viewBox="0 0 29 19" fill="none" xmlns="http://www.w3.org/2000/svg">
<path fill-rule="evenodd" clip-rule="evenodd" d="M5.22342 17.5452C5.22342 17.8547 5.34634 18.1514 5.56513 18.3702C5.78393 18.589 6.08067 18.7119 6.39009 18.7119H22.2766C22.586 18.7119 22.8828 18.589 23.1016 18.3702C23.3203 18.1514 23.4433 17.8547 23.4433 17.5452V16.0869H5.22342V17.5452ZM23.6218 8.9749C21.0721 10.2928 17.9386 9.46369 16.3744 7.05732L15.3571 5.4924C15.2462 5.3217 15.0944 5.18142 14.9155 5.08431C14.7366 4.9872 14.5363 4.93633 14.3328 4.93633C14.1292 4.93633 13.9289 4.9872 13.75 5.08431C13.5711 5.18142 13.4193 5.3217 13.3084 5.4924L12.2911 7.05732C10.7269 9.46369 7.59341 10.2928 5.04376 8.9749C4.83908 8.86928 4.60872 8.82362 4.37923 8.84318C4.14973 8.86274 3.93043 8.94673 3.74658 9.08547C3.56273 9.22422 3.42181 9.41207 3.34004 9.62739C3.25828 9.84272 3.239 10.0768 3.28442 10.3026L5.22342 16.0869H23.4433L25.3811 10.3026C25.5853 9.2969 24.5329 8.50356 23.6218 8.9749ZM14.3328 3.9524C14.8185 3.9524 15.2844 3.75942 15.6279 3.41591C15.9714 3.07241 16.1644 2.60652 16.1644 2.12073C16.1644 1.63494 15.9714 1.16905 15.6279 0.825545C15.2844 0.482041 14.8185 0.289062 14.3328 0.289062C13.847 0.289062 13.3811 0.482041 13.0376 0.825545C12.6941 1.16905 12.5011 1.63494 12.5011 2.12073C12.5011 2.60652 12.6941 3.07241 13.0376 3.41591C13.3811 3.75942 13.847 3.9524 14.3328 3.9524ZM26.5011 4.93706C26.0153 4.93706 25.5494 5.13004 25.2059 5.47355C24.8624 5.81705 24.6694 6.28294 24.6694 6.76873C24.6694 7.25452 24.8624 7.72041 25.2059 8.06391C25.5494 8.40742 26.0153 8.6004 26.5011 8.6004C26.9869 8.6004 27.4528 8.40742 27.7963 8.06391C28.1398 7.72041 28.3328 7.25452 28.3328 6.76873C28.3328 6.28294 28.1398 5.81705 27.7963 5.47355C27.4528 5.13004 26.9869 4.93706 26.5011 4.93706ZM3.99726 6.76873C3.99726 6.28294 3.80428 5.81705 3.46077 5.47355C3.11727 5.13004 2.65138 4.93706 2.16559 4.93706C1.6798 4.93706 1.21391 5.13004 0.870406 5.47355C0.526902 5.81705 0.333923 6.28294 0.333923 6.76873C0.333923 7.25452 0.526902 7.72041 0.870406 8.06391C1.21391 8.40742 1.6798 8.6004 2.16559 8.6004C2.65138 8.6004 3.11727 8.40742 3.46077 8.06391C3.80428 7.72041 3.99726 7.25452 3.99726 6.76873Z" fill="#FFB571"/>
</svg>
