<svg width="27" height="27" viewBox="0 0 27 27" fill="none" xmlns="http://www.w3.org/2000/svg">
<path fill-rule="evenodd" clip-rule="evenodd" d="M20.5003 14.7891H18.1542L17.3142 17.8446C17.2409 18.1179 17.079 18.3591 16.854 18.5305C16.6289 18.7019 16.3534 18.7939 16.0705 18.792H16.0693C15.4813 18.792 14.982 18.4105 14.8268 17.8446L13.5003 13.0286L12.175 17.8446C12.1017 18.1179 11.9399 18.3591 11.7148 18.5305C11.4898 18.7019 11.2142 18.7939 10.9313 18.792C10.3433 18.792 9.84399 18.4116 9.68766 17.8458L8.84649 14.7891H6.50033C6.22185 14.7891 5.95478 14.6785 5.75786 14.4816C5.56095 14.2847 5.45033 14.0176 5.45033 13.7391C5.45033 13.4607 5.56095 13.1936 5.75786 12.9967C5.95478 12.7998 6.22185 12.6891 6.50033 12.6891H8.26899L7.53283 10.0151C7.49211 9.88097 7.47868 9.74 7.49333 9.60055C7.50797 9.46111 7.5504 9.326 7.61811 9.20322C7.68581 9.08044 7.77742 8.97246 7.88754 8.88565C7.99765 8.79885 8.12404 8.73497 8.25923 8.6978C8.39443 8.66063 8.53571 8.65092 8.67472 8.66923C8.81373 8.68754 8.94767 8.73351 9.06863 8.80443C9.18959 8.87535 9.29512 8.96977 9.379 9.08213C9.46287 9.19449 9.5234 9.32251 9.55699 9.45864L10.9313 14.4496L12.2567 9.63481C12.3296 9.36126 12.4913 9.11967 12.7164 8.94798C12.9415 8.77631 13.2172 8.68426 13.5003 8.68631C14.0883 8.68631 14.5888 9.06781 14.744 9.63481L16.0705 14.4496L17.4437 9.45864C17.4802 9.32566 17.5426 9.20117 17.6272 9.09229C17.7119 8.98341 17.8171 8.89227 17.937 8.82408C18.0569 8.75588 18.189 8.71196 18.3259 8.69483C18.4627 8.6777 18.6016 8.68769 18.7346 8.72423C18.8676 8.76077 18.992 8.82314 19.1009 8.90779C19.2098 8.99244 19.3009 9.09771 19.3691 9.21758C19.4373 9.33746 19.4813 9.46959 19.4984 9.60643C19.5155 9.74328 19.5055 9.88216 19.469 10.0151L18.7317 12.6891H20.5003C20.7788 12.6891 21.0459 12.7998 21.2428 12.9967C21.4397 13.1936 21.5503 13.4607 21.5503 13.7391C21.5503 14.0176 21.4397 14.2847 21.2428 14.4816C21.0459 14.6785 20.7788 14.7891 20.5003 14.7891ZM13.5003 0.500977C6.41283 0.500977 0.666992 6.24681 0.666992 13.3343C0.666992 20.423 6.41283 26.1676 13.5003 26.1676C20.5878 26.1676 26.3337 20.423 26.3337 13.3343C26.3337 6.24681 20.5878 0.500977 13.5003 0.500977Z" fill="#FFAAA5"/>
</svg>
