<svg width="29" height="29" viewBox="0 0 29 29" fill="none" xmlns="http://www.w3.org/2000/svg">
<path fill-rule="evenodd" clip-rule="evenodd" d="M17.9968 6.11514C18.1475 6.70257 18.2087 7.29126 18.2675 7.85866L18.3226 8.37471C18.5333 10.0969 18.5333 18.5578 18.3226 20.2926L18.2675 20.8274L18.2665 20.8374C18.2141 21.3741 18.16 21.9296 18.0054 22.5221C17.5951 23.9237 16.5013 24.833 15.2594 24.833C15.2202 24.833 15.181 24.833 15.1369 24.8317C14.451 24.8317 13.7051 24.4109 13.2826 24.0439L9.16357 20.6132H7.04835C5.41569 20.6132 4.22029 19.4321 4.0035 17.6046C3.75364 15.7772 3.80264 12.6421 4.0035 10.9812C4.23989 9.25148 5.49163 8.0528 7.04835 8.0528H9.16357L13.2042 4.67222C13.6916 4.24886 14.5515 3.83051 15.2312 3.83302C16.4499 3.83302 17.5865 4.70979 17.9968 6.11514ZM21.5062 7.63484C21.9949 7.2929 22.6637 7.41564 22.998 7.9104C24.1812 9.65267 24.834 11.9335 24.834 14.3334C24.834 16.7332 24.1812 19.0141 22.998 20.7564C22.7972 21.0507 22.4689 21.2273 22.1174 21.2273C21.8982 21.2273 21.6863 21.1597 21.5062 21.0319C21.0212 20.6862 20.9012 20.0024 21.238 19.5064C22.175 18.1261 22.6906 16.2886 22.6906 14.3334C22.6906 12.3769 22.175 10.5407 21.238 9.16042C20.9012 8.66442 21.0212 7.98054 21.5062 7.63484Z" fill="#FFAAA5"/>
</svg>
